<svg xmlns="http://www.w3.org/2000/svg" viewBox="0 0 175.82 175.82"><title>p4b-icon</title><circle cx="87.91" cy="87.91" r="87.91" style="fill:#004a6d"/><circle cx="87.91" cy="87.91" r="72.15" style="fill:#f2f2f2"/><path d="M575.15,311.81q0.35-3.36.63-7.14t0.39-6l-4.2,0H568.8l-14.5.23,0.12-1.17q0-.42.12-2.45l0.31-7.17q0-1,0-2.08,3.93-4.64,9.07-11.57t9.8-14.22q5.94,0.08,10.68.08,4.47,0,9.18-.08-0.65,8-1,15.65t-0.4,11.57q1.85,0.08,4.35.08,2,0,2.27,0l1.5-.09q-0.15,4.53-.15,9.55v1.77q-2.31-.15-6.81-0.15l-1.58,0q-0.32,3.66-.32,13.14-3.82-.08-7.9-0.08Q579.74,311.73,575.15,311.81Zm3.22-23.75,0.83-17q-2.55,3.89-4.17,6.2t-2.36,3.29l-5.6,7.56h11.31Z" transform="translate(-488.2 -200.42)" style="fill:#00a505;stroke:#fff;stroke-miterlimit:10;stroke-width:0.25px"/><path d="M602.73,288q0.72-8.5,1.26-19.8t0.54-17q3,0.05,5.58.05t5-.05q-0.56,4.21-.82,9.25,2.34-.41,3.6-0.54a23.4,23.4,0,0,1,2.49-.13,16,16,0,0,1,6.77,1.31,10.23,10.23,0,0,1,4.57,4.41,15.16,15.16,0,0,1,1.76,7.58,20.09,20.09,0,0,1-1.67,8.24,12.43,12.43,0,0,1-4.47,5.58,11.7,11.7,0,0,1-6.53,1.82,11.51,11.51,0,0,1-2.65-.3,8.67,8.67,0,0,1-2.29-.88,9,9,0,0,1-1.72-1.23,17.71,17.71,0,0,1-1.59-1.75L612.45,288q-2.75-.05-4.61-0.05Q606.33,287.95,602.73,288Zm10.82-20q-0.19,4.48-.19,5.48a15.19,15.19,0,0,0,.42,4,4.45,4.45,0,0,0,4.3,3.26,4.3,4.3,0,0,0,2.7-.89,5.47,5.47,0,0,0,1.76-2.6,10.75,10.75,0,0,0,.6-3.6,6.78,6.78,0,0,0-1.46-4.55,5.19,5.19,0,0,0-4.19-1.71A16,16,0,0,0,613.55,268Z" transform="translate(-488.2 -200.42)" style="stroke:#fff;stroke-miterlimit:10;stroke-width:0.25px"/><path d="M518.67,325.59q0.49-5.16.82-10.3,0.59-8.79.81-14.74t0.22-11.79q5.22-.78,8.17-1t5.91-.26a28.84,28.84,0,0,1,6.81.76,10.23,10.23,0,0,1,5,2.67,12.35,12.35,0,0,1,2.84,4.56,16.25,16.25,0,0,1,1,5.54,17.18,17.18,0,0,1-.77,5.12,13.49,13.49,0,0,1-2.36,4.47,10.13,10.13,0,0,1-3.66,2.95,10.84,10.84,0,0,1-4.61,1,14.93,14.93,0,0,1-2.61-.24,14.43,14.43,0,0,1-2.55-.69,13.84,13.84,0,0,1-2-.92,23.26,23.26,0,0,1-2-1.35l-0.29,7q-0.18,4.83-.18,7.3-3-.05-5.12-0.05Q522.17,325.54,518.67,325.59Zm11.84-30.41q-0.21,1.13-.28,1.85T530.07,299q-0.08,1.22-.08,2a8.13,8.13,0,0,0,.65,3.46,5.11,5.11,0,0,0,1.83,2.17,4.48,4.48,0,0,0,2.51.77,4.57,4.57,0,0,0,2.6-.79,5.35,5.35,0,0,0,1.88-2.38,8.83,8.83,0,0,0,.69-3.57,6.29,6.29,0,0,0-1.45-4.33,5.35,5.35,0,0,0-4.23-1.64A15.78,15.78,0,0,0,530.51,295.18Z" transform="translate(-488.2 -200.42)" style="stroke:#fff;stroke-miterlimit:10;stroke-width:0.25px"/></svg>