<svg version="1" xmlns="http://www.w3.org/2000/svg" width="405.333" height="405.333" viewBox="0 0 304.000000 304.000000"><path d="M133 1C81.5 8.2 37 40.7 15.1 87.1c-40.8 86.8 7.4 188.5 100.6 212 69.6 17.6 142.6-16.7 173.4-81.5 10.1-21.3 13.8-36.7 14.6-61.1.5-14.5.2-18.8-1.6-29.4C291.4 64.4 244.9 16.2 182.5 3 171.1.6 144-.5 133 1zm40.1 28.6c51.5 8.8 92.4 49.5 101.4 100.8 1.9 11.2 1.9 31.8 0 42.7-5.3 30.6-23 59.5-47.9 78-10.5 7.8-29.5 17.2-41.6 20.4-42.5 11.3-86.8-.1-118.1-30.2-17.6-17-28.5-35.4-34.4-58.1-15-57.4 12.4-116.8 65.7-142.8 23-11.1 50-15 74.9-10.8z"/><path d="M200 98.5c0 11-1.6 42.2-2.5 48.7l-.5 3.8h18v-5.2l3.1 2.6c3.8 3.3 6.6 4 13.4 3.4 11.3-.9 18.4-9.8 19.3-24.2.7-12-3.2-20.1-11.5-23.8-3.5-1.5-6.2-1.9-12.9-1.6l-8.4.3.6-7.3.7-7.2H200v10.5zm29.5 19.5c6.6 6.2 1.5 22.4-6.4 20.5-4.9-1.1-6.1-3.8-6.1-13.5 0-7.6.3-8.9 1.8-9.4 3.2-.9 8.5.3 10.7 2.4zM139.6 115.2c-4.7 6.8-12.1 16.9-16.6 22.6l-8 10.3V170h37l-.1 3.7c0 2.1-.4 7.1-.8 11.1l-.7 7.2H180v-23h15v-20h-14.3l.7-15.3c.3-8.3.9-18.7 1.3-23l.6-7.7h-35.1l-8.6 12.2zm16.9 24.5l-.7 10.3h-18l3.6-4.8c2-2.6 6.2-8.3 9.3-12.8 6.8-9.4 6.9-9.2 5.8 7.3zM64 150.6c-8.6 1-8 .1-8 13.2 0 11.8-1.5 40.1-2.6 47.9l-.5 4.3h18.8l.6-11.2c.4-6.1.8-11.3 1-11.5.2-.2 2.4.6 4.8 1.7 5.2 2.3 13.5 2.6 18.3.6 14.8-6.2 15.9-34.6 1.6-42.6-4.1-2.3-5.6-2.5-17.5-2.6-7.1-.1-14.6 0-16.5.2zm23.8 14.9c4.3 5 2.2 16.4-3.5 18.6-3.3 1.2-5.7.4-8.3-2.8-1.6-2.1-2-4.1-2-10.4 0-7.2.1-7.8 2.3-8.2 4.4-1 9.2.2 11.5 2.8z"/></svg>